<?xml version="1.0" encoding="UTF-8" standalone="no"?>
<!DOCTYPE svg PUBLIC "-//W3C//DTD SVG 1.1//EN" "http://www.w3.org/Graphics/SVG/1.1/DTD/svg11.dtd">
<svg width="100%" height="100%" viewBox="0 0 140 136" version="1.1" xmlns="http://www.w3.org/2000/svg" xmlns:xlink="http://www.w3.org/1999/xlink" xml:space="preserve" xmlns:serif="http://www.serif.com/" style="fill-rule:evenodd;clip-rule:evenodd;stroke-linejoin:round;stroke-miterlimit:2;">
    <g transform="matrix(1,0,0,1,-6.80146,-209.38)">
        <g transform="matrix(1,0,0,1,-185.125,201.286)">
            <g transform="matrix(2.8289,0.243124,-0.265078,3.08435,56.4818,-162.547)">
                <path d="M84.515,48.672C96.676,47.464 101.81,51.791 102.228,55.296C102.876,60.73 97.227,65.912 92.331,67.477C92.331,67.477 100.99,70.17 100.726,77.953C100.403,87.479 88.114,92.517 73.705,93.561C66.978,94.048 68.827,79.562 72.367,69.63C75.278,61.463 79.618,54.291 81.377,54.714C82.375,54.954 78.337,58.355 74.83,69.59C72.408,77.351 72.352,86.261 76.992,86.925C82.658,87.736 92.223,84.457 94.52,77.425C96.037,72.783 94.578,68.664 91.788,67.709C89.927,68.413 85.598,70.13 82.47,69.869C80.181,69.679 78.504,68.497 79.122,66.957C80.032,64.69 86.406,65.778 89.508,66.294C96.199,63.884 98.338,59.82 97.019,55.789C96.125,53.057 92.528,50.1 84.522,50.6C77.037,51.067 72.578,55.346 71.994,54.714C71.363,54.031 77.016,49.417 84.515,48.672ZM80.138,66.957C80.31,67.621 81.155,68.218 82.929,68.169C84.889,68.114 87.607,66.995 88.61,66.556C87.516,66.278 84.67,65.925 82.97,65.906C81.431,65.889 79.937,66.185 80.138,66.957Z" style="fill:white;"/>
            </g>
        </g>
        <g transform="matrix(1,0,0,1,-185.125,201.286)">
            <g transform="matrix(1,0,0,1,319.837,-201.286)">
                <path d="M-121.802,246.912C-119.016,248.957 -116.116,250.169 -113.498,250.605C-114.085,253.059 -114.125,256.02 -113.441,259.195C-117.584,259.479 -120.82,258.504 -122.382,256.148C-123.919,253.831 -123.594,250.543 -121.802,246.912ZM-99.294,227.244C-98.644,226.948 -97.999,226.671 -97.359,226.413L-85.251,244.674C-85.756,245.179 -86.281,245.683 -86.826,246.183C-89.55,243.122 -92.667,241.122 -95.305,240.397C-96.097,240.18 -96.859,240.066 -97.582,240.051C-97.314,239.379 -97.122,238.632 -97.015,237.816C-96.641,234.979 -97.347,231.118 -99.294,227.244ZM-90.284,224.269L-80.523,238.992C-81.067,239.804 -81.674,240.625 -82.34,241.448L-93.255,224.987C-92.237,224.693 -91.244,224.453 -90.284,224.269ZM-85.535,223.818C-82.207,223.879 -79.627,224.884 -78.284,226.91C-76.941,228.935 -77.02,231.703 -78.258,234.792L-85.535,223.818Z" style="fill:white;"/>
                <g transform="matrix(0.996327,0.0856272,-0.0856272,0.996327,-110.437,-3.17373)">
                    <g>
                        <path d="M30.459,248.606C30.366,247.237 30.667,246.073 31.411,245.275C33.664,242.86 39.131,244.704 43.612,249.392C48.093,254.079 49.903,259.846 47.65,262.262C46.091,263.934 42.992,263.565 39.745,261.625C41.05,267.438 39.349,272.282 35.443,272.976C30.958,273.773 25.251,268.797 22.708,261.87C20.164,254.944 21.741,248.673 26.227,247.876C27.567,247.637 29.017,247.915 30.459,248.606ZM15.146,230.66C13.982,227.046 14.32,223.932 16.305,222.79C19.168,221.143 24.38,224.217 27.936,229.652C31.493,235.086 32.056,240.835 29.193,242.483C28.248,243.026 27.046,243.056 25.733,242.655C26.08,244.216 26.022,245.691 25.487,246.944C23.695,251.132 17.23,251.248 11.059,247.203C4.888,243.157 1.333,236.472 3.125,232.284C4.684,228.639 9.782,228.078 15.146,230.66Z" style="fill:white;"/>
                    </g>
                </g>
            </g>
        </g>
    </g>
</svg>
