<?xml version="1.0" encoding="UTF-8" standalone="no"?>
<!DOCTYPE svg PUBLIC "-//W3C//DTD SVG 1.1//EN" "http://www.w3.org/Graphics/SVG/1.1/DTD/svg11.dtd">
<svg width="100%" height="100%" viewBox="0 0 153 153" version="1.1" xmlns="http://www.w3.org/2000/svg" xmlns:xlink="http://www.w3.org/1999/xlink" xml:space="preserve" xmlns:serif="http://www.serif.com/" style="fill-rule:evenodd;clip-rule:evenodd;stroke-linejoin:round;stroke-miterlimit:2;">
    <g id="Artboard2" transform="matrix(1,0,0,1,-185.125,0)">
        <rect x="185.125" y="0" width="152.681" height="152.681" style="fill:none;"/>
        <g transform="matrix(2.94004,0,0,2.94004,42.6616,-115.939)">
            <path d="M86.779,48.768C94.011,47.801 99.209,50.703 99.403,54.729C99.608,58.983 95.528,62.174 89.51,64.033C89.51,64.033 101.631,66.44 100.283,77.739C99.388,85.242 90.76,92.066 79.098,91.308C62.285,90.216 67.94,64.659 75.408,59.458C67.972,68.867 67.938,87.013 79.563,87.402C87.384,87.663 91.824,79.756 92.78,75.452C93.798,70.872 92.107,65.767 87.364,65.067C81.634,67.165 75.415,67.855 75.663,65.127C75.904,62.469 82.887,62.478 88.609,63.663C92.909,62.992 94.006,59.747 92.637,55.855C91.547,52.752 88.499,50.807 82.448,51.64C72.473,53.013 65.896,60 65.896,60C65.896,60 71.703,50.784 86.779,48.768ZM80.847,65.037C80.89,66.151 84.832,65.178 86.206,64.748C84.164,64.493 80.812,64.135 80.847,65.037Z" style="fill:rgb(103,100,92);"/>
        </g>
        <g transform="matrix(-1.98314,1.57505,-1.57505,-1.98314,613.158,202.79)">
            <g>
                <g transform="matrix(0.700722,0,0,1.16952,31.2026,-20.0182)">
                    <ellipse cx="87.523" cy="133.725" rx="12.477" ry="4.054" style="fill:rgb(255,207,0);"/>
                    <clipPath id="_clip1">
                        <ellipse cx="87.523" cy="133.725" rx="12.477" ry="4.054"/>
                    </clipPath>
                    <g clip-path="url(#_clip1)">
                        <g transform="matrix(3.28901e-16,0.711265,-1.98484,3.29484e-16,304.534,79.3799)">
                            <path d="M60.978,114.591L93.079,114.591C93.355,114.591 93.579,114.367 93.579,114.091C93.579,113.815 93.355,113.591 93.079,113.591L60.978,113.591C60.702,113.591 60.478,113.815 60.478,114.091C60.478,114.367 60.702,114.591 60.978,114.591Z" style="fill:rgb(180,176,161);"/>
                        </g>
                        <g transform="matrix(3.28901e-16,0.711265,-1.98484,3.29484e-16,307.873,79.4678)">
                            <path d="M60.978,114.591L93.079,114.591C93.355,114.591 93.579,114.367 93.579,114.091C93.579,113.815 93.355,113.591 93.079,113.591L60.978,113.591C60.702,113.591 60.478,113.815 60.478,114.091C60.478,114.367 60.702,114.591 60.978,114.591Z" style="fill:rgb(180,176,161);"/>
                        </g>
                    </g>
                </g>
                <g transform="matrix(0.639238,-0.34534,0.304535,0.921117,-19.4765,55.8098)">
                    <ellipse cx="115.569" cy="125.689" rx="4.02" ry="4.876" style="fill:rgb(180,176,161);"/>
                </g>
                <g transform="matrix(0.520903,0.0782588,-0.0913137,0.993164,47.8922,-2.97215)">
                    <ellipse cx="115.569" cy="125.689" rx="4.02" ry="4.876" style="fill:rgb(180,176,161);"/>
                </g>
                <g transform="matrix(0.639238,0.34534,0.304535,-0.921117,-19.4765,216.942)">
                    <ellipse cx="115.569" cy="125.689" rx="4.02" ry="4.876" style="fill:rgb(180,176,161);"/>
                </g>
                <g transform="matrix(0.520903,-0.0782588,-0.0913137,-0.993164,47.8922,275.723)">
                    <ellipse cx="115.569" cy="125.689" rx="4.02" ry="4.876" style="fill:rgb(180,176,161);"/>
                </g>
            </g>
        </g>
    </g>
</svg>
