<?xml version="1.0" encoding="UTF-8"?>
<svg width="127.43mm" height="83.617mm" version="1.1" viewBox="0 0 451.51251 296.28086" xmlns="http://www.w3.org/2000/svg">
 <defs>
  <filter id="m" x="-.022434" y="-.025801" width="1.0449" height="1.0516" color-interpolation-filters="sRGB">
   <feGaussianBlur stdDeviation="0.55210238"/>
  </filter>
  <radialGradient id="o" cx="-766.58" cy="536.43" r="25.421" gradientTransform="translate(0 -6.3274e-5)" gradientUnits="userSpaceOnUse">
   <stop stop-color="#ffeea6" offset="0"/>
   <stop stop-color="#feca05" offset="1"/>
  </radialGradient>
  <filter id="l" x="-.036" y="-.036" width="1.072" height="1.072" color-interpolation-filters="sRGB">
   <feGaussianBlur stdDeviation="0.75023987"/>
  </filter>
  <radialGradient id="p" cx="-767.46" cy="538.31" r="22.391" gradientTransform="matrix(1 0 0 .8165 0 93.796)" gradientUnits="userSpaceOnUse">
   <stop stop-color="#fffff9" offset="0"/>
   <stop stop-color="#fefdf0" offset=".4"/>
   <stop stop-color="#fede60" offset="1"/>
  </radialGradient>
  <filter id="k" x="-.037468" y="-.066769" width="1.0749" height="1.1335" color-interpolation-filters="sRGB">
   <feGaussianBlur stdDeviation="0.68773937"/>
  </filter>
  <filter id="j" x="-.12303" y="-.17171" width="1.2461" height="1.3434" color-interpolation-filters="sRGB">
   <feGaussianBlur stdDeviation="0.45584999"/>
  </filter>
  <linearGradient id="n" x1="-789.81" x2="-781.61" y1="535.8" y2="554.23" gradientUnits="userSpaceOnUse">
   <stop stop-color="#feeda3" offset="0"/>
   <stop stop-color="#feeda3" stop-opacity=".086275" offset="1"/>
  </linearGradient>
  <filter id="i" x="-.048" y="-.048" width="1.096" height="1.096" color-interpolation-filters="sRGB">
   <feGaussianBlur stdDeviation="0.27142857"/>
  </filter>
 </defs>
 <g transform="translate(-18.267 -21.412)">
  <g transform="matrix(1.7586 0 0 1.7586 985.97 -820.5)">
   <g transform="translate(248.69 29.901)">
    <path d="m-750.38 564.18-32.249 0.22518-16.32-27.816 15.93-28.041 32.249-0.22518 16.32 27.816z" fill="#ffe900"/>
    <path d="m-751.64 561.9-29.532 0.2062-14.944-25.472 14.587-25.678 29.532-0.2062 14.944 25.472z" fill="#ff8a02" filter="url(#m)"/>
    <path d="m-741.57 536.3a25.008 25.008 0 0 1 -24.861 25.131 25.008 25.008 0 0 1 -25.154 -24.838 25.008 25.008 0 0 1 24.814 -25.177 25.008 25.008 0 0 1 25.2 24.791" fill="url(#o)" filter="url(#l)"/>
    <path d="m-744.55 536.32c0 5.1053-9.7407 0.34537-21.898 0.41656-12.157 0.0712-22.117 5.435-22.155-0.15861-0.0825-12.157 9.6995-22.082 21.856-22.176 12.157-0.0939 22.091 9.6789 22.196 21.835" fill="url(#p)" filter="url(#k)"/>
    <path transform="matrix(.99101 -.13379 0 1 0 0)" d="m-761.32 448.1a4.4461 3.1006 0 0 1 -4.42 3.1158 4.4461 3.1006 0 0 1 -4.472 -3.0795 4.4461 3.1006 0 0 1 4.4116 -3.1216 4.4461 3.1006 0 0 1 4.4803 3.0737" fill="#feeda3" filter="url(#j)"/>
    <path d="m-779.21 558.02c-7.3564-4.3113-12.319-12.277-12.381-21.421-0.0215-3.1665 0.54648-6.1996 1.6013-8.9952-0.47096 9.7888 0.13969 20.445 10.78 30.416z" fill="url(#n)"/>
    <path d="m-768.21 523.22a6.7857 6.7857 0 0 1 -6.7459 6.819 6.7857 6.7857 0 0 1 -6.8253 -6.7395 6.7857 6.7857 0 0 1 6.7332 -6.8316 6.7857 6.7857 0 0 1 6.8379 6.7268" fill="#fff" fill-opacity=".74576" filter="url(#i)"/>
   </g>
   <g transform="translate(296 55.206)">
    <path d="m-750.38 564.18-32.249 0.22518-16.32-27.816 15.93-28.041 32.249-0.22518 16.32 27.816z" fill="#ffe900"/>
    <path d="m-751.64 561.9-29.532 0.2062-14.944-25.472 14.587-25.678 29.532-0.2062 14.944 25.472z" fill="#ff8a02" filter="url(#m)"/>
    <path d="m-741.57 536.3a25.008 25.008 0 0 1 -24.861 25.131 25.008 25.008 0 0 1 -25.154 -24.838 25.008 25.008 0 0 1 24.814 -25.177 25.008 25.008 0 0 1 25.2 24.791" fill="url(#o)" filter="url(#l)"/>
    <path d="m-744.55 536.32c0 5.1053-9.7407 0.34537-21.898 0.41656-12.157 0.0712-22.117 5.435-22.155-0.15861-0.0825-12.157 9.6995-22.082 21.856-22.176 12.157-0.0939 22.091 9.6789 22.196 21.835" fill="url(#p)" filter="url(#k)"/>
    <path transform="matrix(.99101 -.13379 0 1 0 0)" d="m-761.32 448.1a4.4461 3.1006 0 0 1 -4.42 3.1158 4.4461 3.1006 0 0 1 -4.472 -3.0795 4.4461 3.1006 0 0 1 4.4116 -3.1216 4.4461 3.1006 0 0 1 4.4803 3.0737" fill="#feeda3" filter="url(#j)"/>
    <path d="m-779.21 558.02c-7.3564-4.3113-12.319-12.277-12.381-21.421-0.0215-3.1665 0.54648-6.1996 1.6013-8.9952-0.47096 9.7888 0.13969 20.445 10.78 30.416z" fill="url(#n)"/>
    <path d="m-768.21 523.22a6.7857 6.7857 0 0 1 -6.7459 6.819 6.7857 6.7857 0 0 1 -6.8253 -6.7395 6.7857 6.7857 0 0 1 6.7332 -6.8316 6.7857 6.7857 0 0 1 6.8379 6.7268" fill="#fff" fill-opacity=".74576" filter="url(#i)"/>
   </g>
   <g transform="translate(296.87 1.6345)">
    <path d="m-750.38 564.18-32.249 0.22518-16.32-27.816 15.93-28.041 32.249-0.22518 16.32 27.816z" fill="#ffe900"/>
    <path d="m-751.64 561.9-29.532 0.2062-14.944-25.472 14.587-25.678 29.532-0.2062 14.944 25.472z" fill="#ff8a02" filter="url(#m)"/>
    <path d="m-741.57 536.3a25.008 25.008 0 0 1 -24.861 25.131 25.008 25.008 0 0 1 -25.154 -24.838 25.008 25.008 0 0 1 24.814 -25.177 25.008 25.008 0 0 1 25.2 24.791" fill="url(#o)" filter="url(#l)"/>
    <path d="m-744.55 536.32c0 5.1053-9.7407 0.34537-21.898 0.41656-12.157 0.0712-22.117 5.435-22.155-0.15861-0.0825-12.157 9.6995-22.082 21.856-22.176 12.157-0.0939 22.091 9.6789 22.196 21.835" fill="url(#p)" filter="url(#k)"/>
    <path transform="matrix(.99101 -.13379 0 1 0 0)" d="m-761.32 448.1a4.4461 3.1006 0 0 1 -4.42 3.1158 4.4461 3.1006 0 0 1 -4.472 -3.0795 4.4461 3.1006 0 0 1 4.4116 -3.1216 4.4461 3.1006 0 0 1 4.4803 3.0737" fill="#feeda3" filter="url(#j)"/>
    <path d="m-779.21 558.02c-7.3564-4.3113-12.319-12.277-12.381-21.421-0.0215-3.1665 0.54648-6.1996 1.6013-8.9952-0.47096 9.7888 0.13969 20.445 10.78 30.416z" fill="url(#n)"/>
    <path d="m-768.21 523.22a6.7857 6.7857 0 0 1 -6.7459 6.819 6.7857 6.7857 0 0 1 -6.8253 -6.7395 6.7857 6.7857 0 0 1 6.7332 -6.8316 6.7857 6.7857 0 0 1 6.8379 6.7268" fill="#fff" fill-opacity=".74576" filter="url(#i)"/>
   </g>
   <g transform="translate(344.18 26.94)">
    <path d="m-750.38 564.18-32.249 0.22518-16.32-27.816 15.93-28.041 32.249-0.22518 16.32 27.816z" fill="#ffe900"/>
    <path d="m-751.64 561.9-29.532 0.2062-14.944-25.472 14.587-25.678 29.532-0.2062 14.944 25.472z" fill="#ff8a02" filter="url(#m)"/>
    <path d="m-741.57 536.3a25.008 25.008 0 0 1 -24.861 25.131 25.008 25.008 0 0 1 -25.154 -24.838 25.008 25.008 0 0 1 24.814 -25.177 25.008 25.008 0 0 1 25.2 24.791" fill="url(#o)" filter="url(#l)"/>
    <path d="m-744.55 536.32c0 5.1053-9.7407 0.34537-21.898 0.41656-12.157 0.0712-22.117 5.435-22.155-0.15861-0.0825-12.157 9.6995-22.082 21.856-22.176 12.157-0.0939 22.091 9.6789 22.196 21.835" fill="url(#p)" filter="url(#k)"/>
    <path transform="matrix(.99101 -.13379 0 1 0 0)" d="m-761.32 448.1a4.4461 3.1006 0 0 1 -4.42 3.1158 4.4461 3.1006 0 0 1 -4.472 -3.0795 4.4461 3.1006 0 0 1 4.4116 -3.1216 4.4461 3.1006 0 0 1 4.4803 3.0737" fill="#feeda3" filter="url(#j)"/>
    <path d="m-779.21 558.02c-7.3564-4.3113-12.319-12.277-12.381-21.421-0.0215-3.1665 0.54648-6.1996 1.6013-8.9952-0.47096 9.7888 0.13969 20.445 10.78 30.416z" fill="url(#n)"/>
    <path d="m-768.21 523.22a6.7857 6.7857 0 0 1 -6.7459 6.819 6.7857 6.7857 0 0 1 -6.8253 -6.7395 6.7857 6.7857 0 0 1 6.7332 -6.8316 6.7857 6.7857 0 0 1 6.8379 6.7268" fill="#fff" fill-opacity=".74576" filter="url(#i)"/>
   </g>
   <g transform="translate(440.93 26.264)">
    <path d="m-750.38 564.18-32.249 0.22518-16.32-27.816 15.93-28.041 32.249-0.22518 16.32 27.816z" fill="#ffe900"/>
    <path d="m-751.64 561.9-29.532 0.2062-14.944-25.472 14.587-25.678 29.532-0.2062 14.944 25.472z" fill="#ff8a02" filter="url(#m)"/>
    <path d="m-741.57 536.3a25.008 25.008 0 0 1 -24.861 25.131 25.008 25.008 0 0 1 -25.154 -24.838 25.008 25.008 0 0 1 24.814 -25.177 25.008 25.008 0 0 1 25.2 24.791" fill="url(#o)" filter="url(#l)"/>
    <path d="m-744.55 536.32c0 5.1053-9.7407 0.34537-21.898 0.41656-12.157 0.0712-22.117 5.435-22.155-0.15861-0.0825-12.157 9.6995-22.082 21.856-22.176 12.157-0.0939 22.091 9.6789 22.196 21.835" fill="url(#p)" filter="url(#k)"/>
    <path transform="matrix(.99101 -.13379 0 1 0 0)" d="m-761.32 448.1a4.4461 3.1006 0 0 1 -4.42 3.1158 4.4461 3.1006 0 0 1 -4.472 -3.0795 4.4461 3.1006 0 0 1 4.4116 -3.1216 4.4461 3.1006 0 0 1 4.4803 3.0737" fill="#feeda3" filter="url(#j)"/>
    <path d="m-779.21 558.02c-7.3564-4.3113-12.319-12.277-12.381-21.421-0.0215-3.1665 0.54648-6.1996 1.6013-8.9952-0.47096 9.7888 0.13969 20.445 10.78 30.416z" fill="url(#n)"/>
    <path d="m-768.21 523.22a6.7857 6.7857 0 0 1 -6.7459 6.819 6.7857 6.7857 0 0 1 -6.8253 -6.7395 6.7857 6.7857 0 0 1 6.7332 -6.8316 6.7857 6.7857 0 0 1 6.8379 6.7268" fill="#fff" fill-opacity=".74576" filter="url(#i)"/>
   </g>
   <g transform="translate(392.75 54.53)">
    <path d="m-750.38 564.18-32.249 0.22518-16.32-27.816 15.93-28.041 32.249-0.22518 16.32 27.816z" fill="#ffe900"/>
    <path d="m-751.64 561.9-29.532 0.2062-14.944-25.472 14.587-25.678 29.532-0.2062 14.944 25.472z" fill="#ff8a02" filter="url(#m)"/>
    <path d="m-741.57 536.3a25.008 25.008 0 0 1 -24.861 25.131 25.008 25.008 0 0 1 -25.154 -24.838 25.008 25.008 0 0 1 24.814 -25.177 25.008 25.008 0 0 1 25.2 24.791" fill="url(#o)" filter="url(#l)"/>
    <path d="m-744.55 536.32c0 5.1053-9.7407 0.34537-21.898 0.41656-12.157 0.0712-22.117 5.435-22.155-0.15861-0.0825-12.157 9.6995-22.082 21.856-22.176 12.157-0.0939 22.091 9.6789 22.196 21.835" fill="url(#p)" filter="url(#k)"/>
    <path transform="matrix(.99101 -.13379 0 1 0 0)" d="m-761.32 448.1a4.4461 3.1006 0 0 1 -4.42 3.1158 4.4461 3.1006 0 0 1 -4.472 -3.0795 4.4461 3.1006 0 0 1 4.4116 -3.1216 4.4461 3.1006 0 0 1 4.4803 3.0737" fill="#feeda3" filter="url(#j)"/>
    <path d="m-779.21 558.02c-7.3564-4.3113-12.319-12.277-12.381-21.421-0.0215-3.1665 0.54648-6.1996 1.6013-8.9952-0.47096 9.7888 0.13969 20.445 10.78 30.416z" fill="url(#n)"/>
    <path d="m-768.21 523.22a6.7857 6.7857 0 0 1 -6.7459 6.819 6.7857 6.7857 0 0 1 -6.8253 -6.7395 6.7857 6.7857 0 0 1 6.7332 -6.8316 6.7857 6.7857 0 0 1 6.8379 6.7268" fill="#fff" fill-opacity=".74576" filter="url(#i)"/>
   </g>
   <g transform="translate(393.62 .95895)">
    <path d="m-750.38 564.18-32.249 0.22518-16.32-27.816 15.93-28.041 32.249-0.22518 16.32 27.816z" fill="#ffe900"/>
    <path d="m-751.64 561.9-29.532 0.2062-14.944-25.472 14.587-25.678 29.532-0.2062 14.944 25.472z" fill="#ff8a02" filter="url(#m)"/>
    <path d="m-741.57 536.3a25.008 25.008 0 0 1 -24.861 25.131 25.008 25.008 0 0 1 -25.154 -24.838 25.008 25.008 0 0 1 24.814 -25.177 25.008 25.008 0 0 1 25.2 24.791" fill="url(#o)" filter="url(#l)"/>
    <path d="m-744.55 536.32c0 5.1053-9.7407 0.34537-21.898 0.41656-12.157 0.0712-22.117 5.435-22.155-0.15861-0.0825-12.157 9.6995-22.082 21.856-22.176 12.157-0.0939 22.091 9.6789 22.196 21.835" fill="url(#p)" filter="url(#k)"/>
    <path transform="matrix(.99101 -.13379 0 1 0 0)" d="m-761.32 448.1a4.4461 3.1006 0 0 1 -4.42 3.1158 4.4461 3.1006 0 0 1 -4.472 -3.0795 4.4461 3.1006 0 0 1 4.4116 -3.1216 4.4461 3.1006 0 0 1 4.4803 3.0737" fill="#feeda3" filter="url(#j)"/>
    <path d="m-779.21 558.02c-7.3564-4.3113-12.319-12.277-12.381-21.421-0.0215-3.1665 0.54648-6.1996 1.6013-8.9952-0.47096 9.7888 0.13969 20.445 10.78 30.416z" fill="url(#n)"/>
    <path d="m-768.21 523.22a6.7857 6.7857 0 0 1 -6.7459 6.819 6.7857 6.7857 0 0 1 -6.8253 -6.7395 6.7857 6.7857 0 0 1 6.7332 -6.8316 6.7857 6.7857 0 0 1 6.8379 6.7268" fill="#fff" fill-opacity=".74576" filter="url(#i)"/>
   </g>
   <g transform="translate(345.05 -26.632)">
    <path d="m-750.38 564.18-32.249 0.22518-16.32-27.816 15.93-28.041 32.249-0.22518 16.32 27.816z" fill="#ffe900"/>
    <path d="m-751.64 561.9-29.532 0.2062-14.944-25.472 14.587-25.678 29.532-0.2062 14.944 25.472z" fill="#ff8a02" filter="url(#m)"/>
    <path d="m-741.57 536.3a25.008 25.008 0 0 1 -24.861 25.131 25.008 25.008 0 0 1 -25.154 -24.838 25.008 25.008 0 0 1 24.814 -25.177 25.008 25.008 0 0 1 25.2 24.791" fill="url(#o)" filter="url(#l)"/>
    <path d="m-744.55 536.32c0 5.1053-9.7407 0.34537-21.898 0.41656-12.157 0.0712-22.117 5.435-22.155-0.15861-0.0825-12.157 9.6995-22.082 21.856-22.176 12.157-0.0939 22.091 9.6789 22.196 21.835" fill="url(#p)" filter="url(#k)"/>
    <path transform="matrix(.99101 -.13379 0 1 0 0)" d="m-761.32 448.1a4.4461 3.1006 0 0 1 -4.42 3.1158 4.4461 3.1006 0 0 1 -4.472 -3.0795 4.4461 3.1006 0 0 1 4.4116 -3.1216 4.4461 3.1006 0 0 1 4.4803 3.0737" fill="#feeda3" filter="url(#j)"/>
    <path d="m-779.21 558.02c-7.3564-4.3113-12.319-12.277-12.381-21.421-0.0215-3.1665 0.54648-6.1996 1.6013-8.9952-0.47096 9.7888 0.13969 20.445 10.78 30.416z" fill="url(#n)"/>
    <path d="m-768.21 523.22a6.7857 6.7857 0 0 1 -6.7459 6.819 6.7857 6.7857 0 0 1 -6.8253 -6.7395 6.7857 6.7857 0 0 1 6.7332 -6.8316 6.7857 6.7857 0 0 1 6.8379 6.7268" fill="#fff" fill-opacity=".74576" filter="url(#i)"/>
   </g>
   <g transform="translate(440.54 -29.593)">
    <path d="m-750.38 564.18-32.249 0.22518-16.32-27.816 15.93-28.041 32.249-0.22518 16.32 27.816z" fill="#ffe900"/>
    <path d="m-751.64 561.9-29.532 0.2062-14.944-25.472 14.587-25.678 29.532-0.2062 14.944 25.472z" fill="#ff8a02" filter="url(#m)"/>
    <path d="m-741.57 536.3a25.008 25.008 0 0 1 -24.861 25.131 25.008 25.008 0 0 1 -25.154 -24.838 25.008 25.008 0 0 1 24.814 -25.177 25.008 25.008 0 0 1 25.2 24.791" fill="url(#o)" filter="url(#l)"/>
    <path d="m-744.55 536.32c0 5.1053-9.7407 0.34537-21.898 0.41656-12.157 0.0712-22.117 5.435-22.155-0.15861-0.0825-12.157 9.6995-22.082 21.856-22.176 12.157-0.0939 22.091 9.6789 22.196 21.835" fill="url(#p)" filter="url(#k)"/>
    <path transform="matrix(.99101 -.13379 0 1 0 0)" d="m-761.32 448.1a4.4461 3.1006 0 0 1 -4.42 3.1158 4.4461 3.1006 0 0 1 -4.472 -3.0795 4.4461 3.1006 0 0 1 4.4116 -3.1216 4.4461 3.1006 0 0 1 4.4803 3.0737" fill="#feeda3" filter="url(#j)"/>
    <path d="m-779.21 558.02c-7.3564-4.3113-12.319-12.277-12.381-21.421-0.0215-3.1665 0.54648-6.1996 1.6013-8.9952-0.47096 9.7888 0.13969 20.445 10.78 30.416z" fill="url(#n)"/>
    <path d="m-768.21 523.22a6.7857 6.7857 0 0 1 -6.7459 6.819 6.7857 6.7857 0 0 1 -6.8253 -6.7395 6.7857 6.7857 0 0 1 6.7332 -6.8316 6.7857 6.7857 0 0 1 6.8379 6.7268" fill="#fff" fill-opacity=".74576" filter="url(#i)"/>
   </g>
   <g transform="translate(344.57 82.797)">
    <path d="m-750.38 564.18-32.249 0.22518-16.32-27.816 15.93-28.041 32.249-0.22518 16.32 27.816z" fill="#ffe900"/>
    <path d="m-751.64 561.9-29.532 0.2062-14.944-25.472 14.587-25.678 29.532-0.2062 14.944 25.472z" fill="#ff8a02" filter="url(#m)"/>
    <path d="m-741.57 536.3a25.008 25.008 0 0 1 -24.861 25.131 25.008 25.008 0 0 1 -25.154 -24.838 25.008 25.008 0 0 1 24.814 -25.177 25.008 25.008 0 0 1 25.2 24.791" fill="url(#o)" filter="url(#l)"/>
    <path d="m-744.55 536.32c0 5.1053-9.7407 0.34537-21.898 0.41656-12.157 0.0712-22.117 5.435-22.155-0.15861-0.0825-12.157 9.6995-22.082 21.856-22.176 12.157-0.0939 22.091 9.6789 22.196 21.835" fill="url(#p)" filter="url(#k)"/>
    <path transform="matrix(.99101 -.13379 0 1 0 0)" d="m-761.32 448.1a4.4461 3.1006 0 0 1 -4.42 3.1158 4.4461 3.1006 0 0 1 -4.472 -3.0795 4.4461 3.1006 0 0 1 4.4116 -3.1216 4.4461 3.1006 0 0 1 4.4803 3.0737" fill="#feeda3" filter="url(#j)"/>
    <path d="m-779.21 558.02c-7.3564-4.3113-12.319-12.277-12.381-21.421-0.0215-3.1665 0.54648-6.1996 1.6013-8.9952-0.47096 9.7888 0.13969 20.445 10.78 30.416z" fill="url(#n)"/>
    <path d="m-768.21 523.22a6.7857 6.7857 0 0 1 -6.7459 6.819 6.7857 6.7857 0 0 1 -6.8253 -6.7395 6.7857 6.7857 0 0 1 6.7332 -6.8316 6.7857 6.7857 0 0 1 6.8379 6.7268" fill="#fff" fill-opacity=".74576" filter="url(#i)"/>
   </g>
  </g>
 </g>
</svg>
