<?xml version="1.0" encoding="UTF-8" standalone="no"?>
<!DOCTYPE svg PUBLIC "-//W3C//DTD SVG 1.1//EN" "http://www.w3.org/Graphics/SVG/1.1/DTD/svg11.dtd">
<svg width="100%" height="100%" viewBox="0 0 24 24" version="1.1" xmlns="http://www.w3.org/2000/svg" xmlns:xlink="http://www.w3.org/1999/xlink" xml:space="preserve" xmlns:serif="http://www.serif.com/" style="fill-rule:evenodd;clip-rule:evenodd;stroke-linecap:round;stroke-linejoin:round;">
    <g transform="matrix(1.21401,0,0,1.05215,-2.56814,-0.625769)">
        <path d="M14,2L6,2C4.903,2 4,2.903 4,4L4,20C4,21.097 4.903,22 6,22L18,22C19.097,22 20,21.097 20,20L20,8L14,2Z" style="fill:none;fill-rule:nonzero;stroke:white;stroke-width:1.5px;"/>
    </g>
    <g transform="matrix(1.21401,0,0,1.05215,-2.56814,-0.625769)">
        <path d="M14,2L14,8L20,8" style="fill:none;fill-rule:nonzero;stroke:white;stroke-width:1.5px;"/>
    </g>
    <g transform="matrix(1.21401,0,0,1.05215,-2.56814,-0.625769)">
        <path d="M16,13L8,13" style="fill:none;fill-rule:nonzero;stroke:white;stroke-width:3px;"/>
    </g>
    <g transform="matrix(1.21401,0,0,1.05215,-2.56814,-0.625769)">
        <path d="M16,17L8,17" style="fill:none;fill-rule:nonzero;stroke:white;stroke-width:3px;"/>
    </g>
    <g transform="matrix(1.21401,0,0,1.05215,-2.56814,-0.625769)">
        <path d="M10,9L8,9" style="fill:none;fill-rule:nonzero;stroke:white;stroke-width:3px;"/>
    </g>
</svg>
