<?xml version="1.0" encoding="UTF-8"?>
<!DOCTYPE svg  PUBLIC '-//W3C//DTD SVG 1.1//EN'  'http://www.w3.org/Graphics/SVG/1.1/DTD/svg11.dtd'>
<svg enable-background="new 0 0 207.4 105.3" version="1.1" viewBox="0 0 207.4 105.3" xml:space="preserve" xmlns="http://www.w3.org/2000/svg" xmlns:xlink="http://www.w3.org/1999/xlink">
		<defs>
			<rect id="f" width="207.8" height="105.3"/>
		</defs>
		<clipPath id="g">
			<use overflow="visible" xlink:href="#f"/>
		</clipPath>
		<g clip-path="url(#g)">
			<g display="none">
				<g display="inline">
					<rect width="207.8" height="105.3" fill="#228B22"/>
				</g>
				<defs>
					<filter id="e" x="0" y="0" width="207.8" height="105.3" filterUnits="userSpaceOnUse">
						<feFlood flood-color="white" result="back"/>
						<feBlend in="SourceGraphic" in2="back"/>
					</filter>
				</defs>
				<mask id="h" x="0" y="0" width="207.8" height="105.3" display="inline" maskUnits="userSpaceOnUse">
					<g filter="url(#e)">
						<image transform="translate(-2.5521 -2.9901)" width="213" height="111" overflow="visible" xlink:href="633F90C5.jpg">
						</image>
					</g>
				</mask>
				<g display="inline" mask="url(#h)" opacity=".52">
					<rect width="207.8" height="105.3" fill="#fff"/>
				</g>
			</g>
				<g fill="#F9AA0B" opacity=".51">
					<polygon points="45.5 90.1 37.6 77 45.5 63.8 61.5 63.8 69.4 77 61.5 90.1"/>
					<polygon points="22.4 74.8 15.7 63.7 22.4 52.6 35.9 52.6 42.6 63.7 35.9 74.8"/>
					<polygon points="5 83.9 -0.3 75.3 5 66.6 15.4 66.6 20.7 75.3 15.4 83.9"/>
				</g>
				<polygon points="104.7 98.9 94.9 82.8 104.7 66.6 124.3 66.6 134.1 82.8 124.3 98.9" fill="#F9B000"/>
				<polygon points="173.5 24.3 167.1 13.9 173.5 3.5 186.1 3.5 192.4 13.9 186.1 24.3" fill="#F9AA0B" opacity=".5"/>
				<polygon points="13.2 46.4 3.4 30.2 13.2 14.1 32.8 14.1 42.6 30.2 32.8 46.4" fill="#F9B000"/>
				<path d="m130.7 65.1h-23.8l-12-19.7 12-19.7h23.8l12 19.7-12 19.7zm-22.4-2.7h20.9l10.4-17.1-10.4-17.1h-20.9l-10.4 17.1 10.4 17.1z" fill="#F9B000"/>
				<path d="m163.3 44.1h-20l-10-16.5 10-16.5h20l10 16.5-10 16.5zm-19.2-1.3h18.5l9.2-15.2-9.2-15.2h-18.5l-9.2 15.2 9.2 15.2z" fill="#F9B000"/>
				<path d="m172 75.7h-18.2l-9.1-15 9.1-15h18.2l9.1 15-9.1 15zm-17.5-1.1h16.8l8.4-13.8-8.4-13.8h-16.8l-8.4 13.8 8.4 13.8z" fill="#F9B000"/>
				<path d="m191.4 65.3h-15.5l-7.8-12.8 7.8-12.8h15.5l7.8 12.8-7.8 12.8zm-14.6-1.8h13.6l6.7-11.1-6.7-11.1h-13.6l-6.7 11.1 6.7 11.1z" fill="#F9B000"/>
				<path d="m93.1 79.7h-20.3l-10.2-16.8 10.2-16.8h20.3l10.2 16.8-10.2 16.8zm-19.6-1.4h18.8l9.4-15.5-9.4-15.5h-18.8l-9.4 15.5 9.4 15.5z" fill="#F9B000"/>
				<path d="m61.6 60.8h-17.2l-8.6-14.2 8.6-14.2h17.2l8.6 14.2-8.6 14.2zm-16.5-1.2h15.9l7.9-13.1-7.9-13h-15.9l-7.9 13.1 7.9 13z" fill="#F9B000"/>
				<path d="m36.3 71.6h-13.2l-6.6-10.8 0.1-0.1 6.5-10.7h13.1l6.6 10.8-0.1 0.1-6.4 10.7zm-12.9-0.4h12.6l6.3-10.4-6.3-10.4h-12.6l-6.3 10.4 6.3 10.4z" fill="#F4F2ED"/>
				<polygon points="181 86.1 175.4 77 181 67.8 192.1 67.8 197.6 77 192.1 86.1" fill="#F9B000"/>
				<path d="m201.7 39.6h-15.5l-7.8-12.8 7.8-12.8h15.5l7.8 12.8-7.8 12.8zm-14.6-1.7h13.6l6.7-11.1-6.7-11.1h-13.6l-6.7 11.1 6.7 11.1z" fill="#F7F6F5"/>
				<polygon points="74.8 42.8 65.6 27.6 74.8 12.4 93.3 12.4 102.5 27.6 93.3 42.8" fill="#F9AA0B" opacity=".5"/>
				<path d="m62.7 30.4h-17.2l-8.6-14.2 8.6-14.2h17.2l8.6 14.2-8.6 14.2zm-16.5-1.1h15.9l7.9-13.1-7.9-13.1h-15.9l-7.9 13.1 7.9 13.1z" fill="#F9B000"/>
				<path d="m150.8 90.4h-25.7l-0.1-0.1-12.8-21.1 0.1-0.1 12.8-21.1h25.7l0.1 0.1 12.8 21.1-0.1 0.1-12.8 21.1zm-25.4-0.4h25.2l12.6-20.7-12.6-20.7h-25.2l-12.6 20.7 12.6 20.7z" fill="#F9F8F7"/>
				<polygon points="75.7 106.7 68.4 94.7 75.7 82.8 90.2 82.8 97.5 94.7 90.2 106.7" fill="#F9B000"/>
				<polygon points="160.9 100.4 154.6 90.1 160.9 79.8 173.4 79.8 179.7 90.1 173.4 100.4" fill="#F9B000" opacity=".5"/>
				<polygon points="22.3 99.5 15.5 88.2 22.3 77 36 77 42.9 88.2 36 99.5" fill="#F9B000"/>
				<path d="m112.8 37.7h-14.8l-7.4-12.2 0.1-0.1 7.3-12.1h14.8l7.4 12.2-0.1 0.1-7.3 12.1zm-14.6-0.5h14.3l7.1-11.8-7.1-11.8h-14.3l-7.1 11.8 7.1 11.8z" fill="#F7F6F5"/>
				<polygon points="119.2 19.7 111.2 6.6 119.2 -6.5 135.1 -6.5 143.1 6.6 135.1 19.7" fill="#F9AA0B" opacity=".51"/>
				<path d="m83.8 11.6h-14l-7-11.6 7-11.6h14l7 11.6-7 11.6zm-13.4-1h12.9l6.4-10.6-6.4-10.6h-12.9l-6.5 10.6 6.5 10.6z" fill="#F9AA0B"/>
				<polygon points="96.1 11.2 90.8 2.6 96.1 -6.1 106.6 -6.1 111.8 2.6 106.6 11.2" fill="#F9AA0B"/>
				<polygon points="132.2 126.2 122 109.9 132.2 93.6 152.5 93.6 162.7 109.9 152.5 126.2" fill="#F9AA0B" opacity=".51"/>
				<path d="m205.1 121.9h-20.1l-10.1-16.6 10.1-16.7h20.2l10.1 16.6-10.2 16.7zm-19.6-1h19l9.5-15.6-9.5-15.6h-19l-9.5 15.6 9.5 15.6z" fill="#F9B000"/>
				<path d="m63.1 124.8h-20.1l-10.1-16.6 10.1-16.6h20.2l10.1 16.6-10.2 16.6zm-19.6-1h19l9.5-15.6-9.5-15.6h-19l-9.5 15.6 9.5 15.6z" fill="#F9B000"/>
				<polygon points="-8.8 118.4 -18.6 102.2 -8.8 86.1 10.8 86.1 20.6 102.2 10.8 118.4" fill="#F9B000"/>
				<polygon points="203 79.7 195 66.6 203 53.5 218.9 53.5 226.9 66.6 218.9 79.7" fill="#F9AA0B" opacity=".51"/>
				<polygon points="8.3 10.3 1 -1.7 8.3 -13.8 22.9 -13.8 30.2 -1.7 22.9 10.3" fill="#F9AA0B" opacity=".51"/>
				<path d="m15.3 54.2h-26.6l-13.3-22 13.3-22h26.6l13.3 22-13.3 22zm-25.5-2h24.3l12.1-20-12.1-20h-24.3l-12.1 20 12.1 20z" fill="#F9F8F7"/>
				<path d="m159.3 21.2h-26.6l-13.3-22 13.3-22h26.6l13.3 22-13.3 22zm-25.5-2h24.3l12.1-20-12.1-20h-24.3l-12.1 20 12.1 20z" fill="#F9F8F7"/>
				<path d="m115.7 113.8h-18.1l-9.1-15 9.1-15h18.2l9.1 15-9.2 15zm-17.6-1h17l8.5-14-8.5-14h-17l-8.5 14 8.5 14z" fill="#F9F8F7"/>
		</g>
</svg>
