<?xml version="1.0" encoding="UTF-8" standalone="no"?>
<!DOCTYPE svg PUBLIC "-//W3C//DTD SVG 1.1//EN" "http://www.w3.org/Graphics/SVG/1.1/DTD/svg11.dtd">
<svg width="100%" height="100%" viewBox="0 0 119 210" version="1.1" xmlns="http://www.w3.org/2000/svg" xmlns:xlink="http://www.w3.org/1999/xlink" xml:space="preserve" xmlns:serif="http://www.serif.com/" style="fill-rule:evenodd;clip-rule:evenodd;stroke-linejoin:round;stroke-miterlimit:1.41421;">
    <g id="Artboard1" transform="matrix(0.8612,0,0,0.991962,-145.049,-105.218)">
        <rect x="168.427" y="106.071" width="137.201" height="211.502" style="fill:none;"/>
        <clipPath id="_clip1">
            <rect x="168.427" y="106.071" width="137.201" height="211.502"/>
        </clipPath>
        <g clip-path="url(#_clip1)">
            <g transform="matrix(0.300533,0.973753,-1.1216,0.260916,268.923,98.4106)">
                <g>
                    <g opacity="0.51">
                        <path d="M45.5,90.1L37.6,77L45.5,63.8L61.5,63.8L69.4,77L61.5,90.1L45.5,90.1Z" style="fill:rgb(198,194,186);fill-rule:nonzero;"/>
                        <path d="M22.4,74.8L15.7,63.7L22.4,52.6L35.9,52.6L42.6,63.7L35.9,74.8L22.4,74.8Z" style="fill:rgb(198,194,186);fill-rule:nonzero;"/>
                        <path d="M5,83.9L-0.3,75.3L5,66.6L15.4,66.6L20.7,75.3L15.4,83.9L5,83.9Z" style="fill:rgb(198,194,186);fill-rule:nonzero;"/>
                    </g>
                </g>
                <path d="M104.7,98.9L94.9,82.8L104.7,66.6L124.3,66.6L134.1,82.8L124.3,98.9L104.7,98.9Z" style="fill:rgb(234,234,232);fill-rule:nonzero;"/>
                <path d="M173.5,24.3L167.1,13.9L173.5,3.5L186.1,3.5L192.4,13.9L186.1,24.3L173.5,24.3Z" style="fill:rgb(198,194,186);fill-opacity:0.498039;fill-rule:nonzero;"/>
                <path d="M13.2,46.4L3.4,30.2L13.2,14.1L32.8,14.1L42.6,30.2L32.8,46.4L13.2,46.4Z" style="fill:rgb(243,243,242);fill-rule:nonzero;"/>
                <path d="M130.7,65.1L106.9,65.1L94.9,45.4L106.9,25.7L130.7,25.7L142.7,45.4L130.7,65.1ZM108.3,62.4L129.2,62.4L139.6,45.3L129.2,28.2L108.3,28.2L97.9,45.3L108.3,62.4Z" style="fill:rgb(232,232,232);fill-rule:nonzero;"/>
                <path d="M163.3,44.1L143.3,44.1L133.3,27.6L143.3,11.1L163.3,11.1L173.3,27.6L163.3,44.1ZM144.1,42.8L162.6,42.8L171.8,27.6L162.6,12.4L144.1,12.4L134.9,27.6L144.1,42.8Z" style="fill:rgb(242,241,239);fill-rule:nonzero;"/>
                <path d="M172,75.7L153.8,75.7L144.7,60.7L153.8,45.7L172,45.7L181.1,60.7L172,75.7ZM154.5,74.6L171.3,74.6L179.7,60.8L171.3,47L154.5,47L146.1,60.8L154.5,74.6Z" style="fill:rgb(242,241,239);fill-rule:nonzero;"/>
                <path d="M191.4,65.3L175.9,65.3L168.1,52.5L175.9,39.7L191.4,39.7L199.2,52.5L191.4,65.3ZM176.8,63.5L190.4,63.5L197.1,52.4L190.4,41.3L176.8,41.3L170.1,52.4L176.8,63.5Z" style="fill:rgb(232,232,232);fill-rule:nonzero;"/>
                <path d="M93.1,79.7L72.8,79.7L62.6,62.9L72.8,46.1L93.1,46.1L103.3,62.9L93.1,79.7ZM73.5,78.3L92.3,78.3L101.7,62.8L92.3,47.3L73.5,47.3L64.1,62.8L73.5,78.3Z" style="fill:rgb(242,241,239);fill-rule:nonzero;"/>
                <path d="M61.6,60.8L44.4,60.8L35.8,46.6L44.4,32.4L61.6,32.4L70.2,46.6L61.6,60.8ZM45.1,59.6L61,59.6L68.9,46.5L61,33.5L45.1,33.5L37.2,46.6L45.1,59.6Z" style="fill:rgb(242,241,239);fill-rule:nonzero;"/>
                <path d="M36.3,71.6L23.1,71.6L16.5,60.8L16.6,60.7L23.1,50L36.2,50L42.8,60.8L42.7,60.9L36.3,71.6ZM23.4,71.2L36,71.2L42.3,60.8L36,50.4L23.4,50.4L17.1,60.8L23.4,71.2Z" style="fill:rgb(244,242,237);fill-rule:nonzero;"/>
                <path d="M181,86.1L175.4,77L181,67.8L192.1,67.8L197.6,77L192.1,86.1L181,86.1Z" style="fill:rgb(250,249,247);fill-rule:nonzero;"/>
                <path d="M201.7,39.6L186.2,39.6L178.4,26.8L186.2,14L201.7,14L209.5,26.8L201.7,39.6ZM187.1,37.9L200.7,37.9L207.4,26.8L200.7,15.7L187.1,15.7L180.4,26.8L187.1,37.9Z" style="fill:rgb(247,246,245);fill-rule:nonzero;"/>
                <path d="M74.8,42.8L65.6,27.6L74.8,12.4L93.3,12.4L102.5,27.6L93.3,42.8L74.8,42.8Z" style="fill:rgb(198,194,186);fill-opacity:0.498039;fill-rule:nonzero;"/>
                <path d="M62.7,30.4L45.5,30.4L36.9,16.2L45.5,2L62.7,2L71.3,16.2L62.7,30.4ZM46.2,29.3L62.1,29.3L70,16.2L62.1,3.1L46.2,3.1L38.3,16.2L46.2,29.3Z" style="fill:rgb(242,241,239);fill-rule:nonzero;"/>
                <path d="M150.8,90.4L125.1,90.4L125,90.3L112.2,69.2L112.3,69.1L125.1,48L150.8,48L150.9,48.1L163.7,69.2L163.6,69.3L150.8,90.4ZM125.4,90L150.6,90L163.2,69.3L150.6,48.6L125.4,48.6L112.8,69.3L125.4,90Z" style="fill:rgb(249,248,247);fill-rule:nonzero;"/>
                <path d="M75.7,106.7L68.4,94.7L75.7,82.8L90.2,82.8L97.5,94.7L90.2,106.7L75.7,106.7Z" style="fill:rgb(250,249,247);fill-rule:nonzero;"/>
                <path d="M160.9,100.4L154.6,90.1L160.9,79.8L173.4,79.8L179.7,90.1L173.4,100.4L160.9,100.4Z" style="fill:rgb(198,194,186);fill-opacity:0.498039;fill-rule:nonzero;"/>
                <path d="M22.3,99.5L15.5,88.2L22.3,77L36,77L42.9,88.2L36,99.5L22.3,99.5Z" style="fill:rgb(250,249,247);fill-rule:nonzero;"/>
                <path d="M112.8,37.7L98,37.7L90.6,25.5L90.7,25.4L98,13.3L112.8,13.3L120.2,25.5L120.1,25.6L112.8,37.7ZM98.2,37.2L112.5,37.2L119.6,25.4L112.5,13.6L98.2,13.6L91.1,25.4L98.2,37.2Z" style="fill:rgb(247,246,245);fill-rule:nonzero;"/>
                <path d="M119.2,19.7L111.2,6.6L119.2,-6.5L135.1,-6.5L143.1,6.6L135.1,19.7L119.2,19.7Z" style="fill:rgb(198,194,186);fill-opacity:0.509804;fill-rule:nonzero;"/>
                <path d="M83.8,11.6L69.8,11.6L62.8,0L69.8,-11.6L83.8,-11.6L90.8,0L83.8,11.6ZM70.4,10.6L83.3,10.6L89.7,0L83.3,-10.6L70.4,-10.6L63.9,0L70.4,10.6Z" style="fill:rgb(242,241,239);fill-rule:nonzero;"/>
                <path d="M96.1,11.2L90.8,2.6L96.1,-6.1L106.6,-6.1L111.8,2.6L106.6,11.2L96.1,11.2Z" style="fill:rgb(250,249,247);fill-rule:nonzero;"/>
                <path d="M132.2,126.2L122,109.9L132.2,93.6L152.5,93.6L162.7,109.9L152.5,126.2L132.2,126.2Z" style="fill:rgb(198,194,186);fill-opacity:0.509804;fill-rule:nonzero;"/>
                <path d="M205.1,121.9L185,121.9L174.9,105.3L185,88.6L205.2,88.6L215.3,105.2L205.1,121.9ZM185.5,120.9L204.5,120.9L214,105.3L204.5,89.7L185.5,89.7L176,105.3L185.5,120.9Z" style="fill:rgb(232,232,232);fill-rule:nonzero;"/>
                <path d="M63.1,124.8L43,124.8L32.9,108.2L43,91.6L63.2,91.6L73.3,108.2L63.1,124.8ZM43.5,123.8L62.5,123.8L72,108.2L62.5,92.6L43.5,92.6L34,108.2L43.5,123.8Z" style="fill:rgb(232,232,232);fill-rule:nonzero;"/>
                <path d="M-8.8,118.4L-18.6,102.2L-8.8,86.1L10.8,86.1L20.6,102.2L10.8,118.4L-8.8,118.4Z" style="fill:rgb(250,249,247);fill-rule:nonzero;"/>
                <path d="M203,79.7L195,66.6L203,53.5L218.9,53.5L226.9,66.6L218.9,79.7L203,79.7Z" style="fill:rgb(198,194,186);fill-opacity:0.509804;fill-rule:nonzero;"/>
                <path d="M8.3,10.3L1,-1.7L8.3,-13.8L22.9,-13.8L30.2,-1.7L22.9,10.3L8.3,10.3Z" style="fill:rgb(198,194,186);fill-opacity:0.509804;fill-rule:nonzero;"/>
                <path d="M15.3,54.2L-11.3,54.2L-24.6,32.2L-11.3,10.2L15.3,10.2L28.6,32.2L15.3,54.2ZM-10.2,52.2L14.1,52.2L26.2,32.2L14.1,12.2L-10.2,12.2L-22.3,32.2L-10.2,52.2Z" style="fill:rgb(249,248,247);fill-rule:nonzero;"/>
                <path d="M159.3,21.2L132.7,21.2L119.4,-0.8L132.7,-22.8L159.3,-22.8L172.6,-0.8L159.3,21.2ZM133.8,19.2L158.1,19.2L170.2,-0.8L158.1,-20.8L133.8,-20.8L121.7,-0.8L133.8,19.2Z" style="fill:rgb(249,248,247);fill-rule:nonzero;"/>
                <path d="M115.7,113.8L97.6,113.8L88.5,98.8L97.6,83.8L115.8,83.8L124.9,98.8L115.7,113.8ZM98.1,112.8L115.1,112.8L123.6,98.8L115.1,84.8L98.1,84.8L89.6,98.8L98.1,112.8Z" style="fill:rgb(249,248,247);fill-rule:nonzero;"/>
            </g>
        </g>
    </g>
</svg>
