<?xml version="1.0" encoding="UTF-8"?>
<!DOCTYPE svg  PUBLIC '-//W3C//DTD SVG 1.0//EN'  'http://www.w3.org/TR/2001/REC-SVG-20010904/DTD/svg10.dtd'>
<svg width="258.13mm" height="276.28mm" clip-rule="evenodd" fill-rule="evenodd" image-rendering="optimizeQuality" shape-rendering="geometricPrecision" text-rendering="geometricPrecision" version="1.0" viewBox="0 0 2212 2367" xml:space="preserve" xmlns="http://www.w3.org/2000/svg" xmlns:xlink="http://www.w3.org/1999/xlink">
 <defs>
  <style type="text/css">
    .fil2 {fill:#EF7F1A;fill-opacity:0.090196}
    .fil3 {fill:#FFED00;fill-opacity:0.360784}
    .fil9 {fill:url(#u)}
    .fil6 {fill:url(#x)}
    .fil1 {fill:url(#ah)}
    .fil18 {fill:url(#ai)}
    .fil27 {fill:url(#aj)}
    .fil15 {fill:url(#ak)}
    .fil24 {fill:url(#al)}
    .fil12 {fill:url(#am)}
    .fil21 {fill:url(#an)}
    .fil8 {fill:url(#v)}
    .fil5 {fill:url(#y)}
    .fil0 {fill:url(#z)}
    .fil17 {fill:url(#aa)}
    .fil26 {fill:url(#ab)}
    .fil14 {fill:url(#ac)}
    .fil23 {fill:url(#ad)}
    .fil11 {fill:url(#ae)}
    .fil20 {fill:url(#af)}
    .fil10 {fill:url(#w);fill-opacity:0.529412}
    .fil7 {fill:url(#ag);fill-opacity:0.529412}
    .fil4 {fill:url(#id20);fill-opacity:0.529412}
    .fil19 {fill:url(#id21);fill-opacity:0.529412}
    .fil28 {fill:url(#id22);fill-opacity:0.529412}
    .fil16 {fill:url(#id23);fill-opacity:0.529412}
    .fil25 {fill:url(#id24);fill-opacity:0.529412}
    .fil13 {fill:url(#id25);fill-opacity:0.529412}
    .fil22 {fill:url(#id26);fill-opacity:0.529412}
  </style>
  <linearGradient id="u" x1="365.8" x2="246.54" y1="1011.3" y2="550.82" gradientUnits="userSpaceOnUse">
   <stop stop-color="#F9E306" offset="0"/>
   <stop stop-color="#D9A60A" offset="1"/>
  </linearGradient>
  <linearGradient id="x" x1="664.65" x2="545.39" y1="1566.1" y2="1105.6" gradientUnits="userSpaceOnUse" xlink:href="#u">
  </linearGradient>
  <linearGradient id="ah" x1="990.19" x2="870.93" y1="1032.1" y2="571.64" gradientUnits="userSpaceOnUse" xlink:href="#u">
  </linearGradient>
  <linearGradient id="ai" x1="1291.9" x2="1172.6" y1="1581.7" y2="1121.2" gradientUnits="userSpaceOnUse" xlink:href="#u">
  </linearGradient>
  <linearGradient id="aj" x1="1313.8" x2="1194.6" y1="497.81" y2="37.346" gradientUnits="userSpaceOnUse" xlink:href="#u">
  </linearGradient>
  <linearGradient id="ak" x1="1590.7" x2="1471.5" y1="2136.5" y2="1676" gradientUnits="userSpaceOnUse" xlink:href="#u">
  </linearGradient>
  <linearGradient id="al" x1="1612.7" x2="1493.4" y1="1052.6" y2="592.14" gradientUnits="userSpaceOnUse" xlink:href="#u">
  </linearGradient>
  <linearGradient id="am" x1="1916.3" x2="1797" y1="1602.5" y2="1142.1" gradientUnits="userSpaceOnUse" xlink:href="#u">
  </linearGradient>
  <linearGradient id="an" x1="1938.2" x2="1819" y1="518.63" y2="58.164" gradientUnits="userSpaceOnUse" xlink:href="#u">
  </linearGradient>
  <linearGradient id="v" x1="136.83" x2="583.9" y1="794.35" y2="1038.2" gradientUnits="userSpaceOnUse">
   <stop stop-color="#B67300" offset="0"/>
   <stop stop-color="#FFDD15" offset="1"/>
  </linearGradient>
  <linearGradient id="y" x1="435.68" x2="882.75" y1="1349.2" y2="1593" gradientUnits="userSpaceOnUse" xlink:href="#v">
  </linearGradient>
  <linearGradient id="z" x1="761.22" x2="1208.3" y1="815.17" y2="1059" gradientUnits="userSpaceOnUse" xlink:href="#v">
  </linearGradient>
  <linearGradient id="aa" x1="1062.9" x2="1510" y1="1364.8" y2="1608.7" gradientUnits="userSpaceOnUse" xlink:href="#v">
  </linearGradient>
  <linearGradient id="ab" x1="1084.9" x2="1531.9" y1="280.88" y2="524.76" gradientUnits="userSpaceOnUse" xlink:href="#v">
  </linearGradient>
  <linearGradient id="ac" x1="1361.8" x2="1808.8" y1="1919.6" y2="2163.5" gradientUnits="userSpaceOnUse" xlink:href="#v">
  </linearGradient>
  <linearGradient id="ad" x1="1383.7" x2="1830.8" y1="835.67" y2="1079.6" gradientUnits="userSpaceOnUse" xlink:href="#v">
  </linearGradient>
  <linearGradient id="ae" x1="1687.3" x2="2134.4" y1="1385.6" y2="1629.5" gradientUnits="userSpaceOnUse" xlink:href="#v">
  </linearGradient>
  <linearGradient id="af" x1="1709.2" x2="2156.3" y1="301.7" y2="545.58" gradientUnits="userSpaceOnUse" xlink:href="#v">
  </linearGradient>
  <radialGradient id="w" cx="59%" cy="28%" r="34%">
   <stop stop-color="#FEFEFE" offset="0"/>
   <stop stop-color="#FFED00" offset="1"/>
  </radialGradient>
  <radialGradient id="ag" cx="59%" cy="28%" r="34%" xlink:href="#w">
  </radialGradient>
 </defs>
     <path class="fil0" d="m633 709l160-87 159-88 156 95 156 95-4 182-5 182-160 87-159 88-156-95-156-95 5-182 4-182z"/>
     <path class="fil1" d="m685 741l133-73 133-73 130 79 129 79-3 152-4 151-133 73-133 73-130-79-129-79 3-152 4-151z"/>
     <path class="fil2" d="m698 755l124-68 124-68 122 74c-5 75-29 155-74 230-51 83-119 145-192 183l-111-67 3-142 4-142z"/>
     <path class="fil3" d="m1024 638l62 37v1c-5 80-31 166-79 245-54 89-127 156-205 197l-69-42c80-40 156-109 212-200 47-78 73-160 79-238z"/>
     <path class="fil4" d="m685 741l133-73 133-73 130 79c-3 52-15 105-35 158-97 41-198 41-280-9-33-20-60-46-81-77v-5z"/>
     <path class="fil5" d="m307 1243l160-87 160-88 156 95 155 95-4 182-4 182-160 87-160 88-156-95-155-95 4-182 4-182z"/>
     <path class="fil6" d="m359 1275l133-73 134-73 129 79 130 79-4 152-3 151-133 73-133 73-130-79-130-79 4-152 3-151z"/>
     <path class="fil2" d="m372 1289l125-68 124-68 121 74c-4 75-29 155-74 230-50 83-118 145-191 183l-111-67 3-142 3-142z"/>
     <path class="fil3" d="m698 1172l62 37v1c-4 80-30 166-79 245-54 89-127 156-205 197l-69-42c81-40 157-109 212-200 47-78 73-160 79-238z"/>
     <path class="fil7" d="m360 1275l133-73 133-73 129 79h1c-3 52-15 105-36 158-96 41-198 41-280-9-32-20-59-46-80-77v-5z"/>
     <path class="fil8" d="m8 688l160-87 160-88 156 95 155 95-4 182-4 182-160 88-160 87-155-95-156-94 4-183 4-182z"/>
     <path class="fil9" d="m61 720l133-73 133-73 129 79 130 79-4 152-3 151-133 73-133 73-130-79-130-79 4-151 4-152z"/>
     <path class="fil2" d="m73 735l125-68 124-68 121 73c-4 76-28 156-74 230-50 83-118 146-191 183l-111-67 3-142 3-141z"/>
     <path class="fil3" d="m399 617l62 38h1c-5 80-31 166-80 246-54 88-127 155-205 196l-69-42c81-40 157-109 212-200 47-77 73-160 79-238z"/>
     <path class="fil10" d="m61 720l133-73 133-72 130 78v1c-3 51-15 105-36 157-96 41-198 41-280-9-32-20-59-46-80-77v-5z"/>
     <path class="fil11" d="m1559 1280l160-88 160-87 155 94 156 95-4 182-5 182-159 88-160 87-156-94-156-95 5-182 4-182z"/>
     <path class="fil12" d="m1611 1311l133-73 133-72 130 79 129 78-3 152-4 152-133 73-133 72-129-79-130-78 3-152 4-152z"/>
     <path class="fil2" d="m1624 1326l124-68 125-68 121 73v1c-5 75-29 155-74 229-51 83-119 146-192 184l-111-68 4-141 3-142z"/>
     <path class="fil3" d="m1950 1208l62 38c-5 81-31 166-79 246-54 88-127 156-205 196l-69-42c81-40 156-109 212-200 47-77 73-160 79-238z"/>
     <path class="fil13" d="m1611 1311l133-72 133-73 130 79c-3 51-14 105-35 158-97 40-198 40-280-10-33-20-60-46-81-77v-5z"/>
     <path class="fil14" d="m1233 1814l160-88 160-87 156 94 155 95-4 182-4 182-160 88-160 87-155-94-156-95 4-182 4-182z"/>
     <path class="fil15" d="m1285 1845l134-73 133-72 129 79 130 78-4 152-3 152-133 72-133 73-130-79-130-78 4-152 3-152z"/>
     <path class="fil2" d="m1298 1860l125-68 124-68 121 73v1c-4 75-28 155-74 229-50 83-118 146-191 184l-111-68 3-141 3-142z"/>
     <path class="fil3" d="m1624 1742l62 38h1c-5 81-31 166-80 246-54 88-127 156-205 196l-69-42c81-40 157-109 212-200 47-77 73-160 79-238z"/>
     <path class="fil16" d="m1286 1845l133-72 133-73 129 79h1c-3 51-15 105-36 158-96 40-198 40-280-10-32-20-59-46-80-77v-5z"/>
     <path class="fil17" d="m934 1259l160-88 160-87 156 95 155 94-4 182-4 183-160 87-160 87-155-94-156-95 4-182 4-182z"/>
     <path class="fil18" d="m987 1290l133-72 133-73 129 79 130 79-4 151-3 152-133 73-133 72-130-78-129-79 3-152 4-152z"/>
     <path class="fil2" d="m999 1305l125-68 124-68 121 74c-4 75-28 155-74 230-50 82-118 145-191 183l-111-68 3-141 3-142z"/>
     <path class="fil3" d="m1325 1187l62 38h1c-5 81-31 166-80 246-54 89-126 156-205 196l-69-42c81-40 157-108 213-200 47-77 72-159 78-238z"/>
     <path class="fil19" d="m987 1291l133-73 133-73 130 79c-3 52-15 105-36 158-96 40-198 40-280-10-32-20-59-46-80-76v-5z"/>
     <path class="fil20" d="m1581 196l160-88 160-87 155 95 156 94-4 182-5 183-159 87-160 87-156-94-156-95 5-182 4-182z"/>
     <path class="fil21" d="m1633 227l133-72 133-73 130 79 129 79-3 151-4 152-133 73-133 72-130-78-129-79 3-152 4-152z"/>
     <path class="fil2" d="m1646 242l124-68 125-68 121 74c-5 75-29 155-74 229-51 83-119 146-192 184l-111-68 3-141 4-142z"/>
     <path class="fil3" d="m1972 124l62 38c-5 81-31 166-79 246-54 89-127 156-205 196l-69-42c81-40 156-108 212-200 47-77 73-160 79-238z"/>
     <path class="fil22" d="m1633 228l133-73 133-73 130 79c-3 51-15 105-35 158-97 40-198 40-280-10-33-20-60-46-81-76v-5z"/>
     <path class="fil23" d="m1255 730l160-88 160-87 156 95 155 94-4 182-4 183-160 87-160 87-155-94-156-95 4-182 4-182z"/>
     <path class="fil24" d="m1307 761l133-72 134-73 129 79 130 78-4 152-3 152-133 73-133 72-130-78-130-79 4-152 3-152z"/>
     <path class="fil2" d="m1320 776l125-68 124-68 121 74c-4 75-28 155-74 229-50 83-118 146-191 184l-111-68 3-141 3-142z"/>
     <path class="fil3" d="m1646 658l62 38c-4 81-30 166-79 246-54 89-127 156-205 196l-69-42c81-40 157-108 212-200 47-77 73-160 79-238z"/>
     <path class="fil25" d="m1308 762l133-73 133-73 129 79h1c-3 51-15 105-36 158-96 40-198 40-280-10-32-20-59-46-80-76v-5z"/>
     <path class="fil26" d="m956 175l160-88 160-87 156 95 155 94-4 183-4 182-160 87-160 88-155-95-156-95 4-182 4-182z"/>
     <path class="fil27" d="m1009 207l133-73 133-73 129 79 130 79-4 151-3 152-133 73-133 73-130-79-129-79 3-152 4-151z"/>
     <path class="fil2" d="m1021 221l125-68 124-68 121 74c-4 75-28 155-74 230-50 82-118 145-191 183l-111-67 3-142 3-142z"/>
     <path class="fil3" d="m1347 103l62 38h1c-5 81-31 166-80 246-54 89-127 156-205 196l-69-42c81-40 157-108 213-200 47-77 72-159 78-238z"/>
     <path class="fil28" d="m1009 207l133-73 133-73 130 79c-3 52-15 105-36 158-96 40-198 40-280-10-32-19-59-46-80-76v-5z"/>
</svg>
